<svg width="200" height="200" viewBox="0 0 200 200" fill="none" xmlns="http://www.w3.org/2000/svg">
<mask id="path-1-inside-1_4_690" fill="white">
<path d="M100.5 54C119.432 54 135.486 66.6689 141.106 84.2197C141.817 84.1908 142.531 84.1758 143.25 84.1758C166.86 84.1758 186 99.9383 186 119.382C186 135.776 172.393 149.553 153.972 153.471C153.112 154.169 152.017 154.588 150.823 154.588H47.6621C46.0504 154.588 44.6175 153.825 43.7031 152.641C26.9936 147.855 15 134.773 15 119.382C15.0002 99.9384 34.1401 84.1759 57.75 84.1758C58.4684 84.1758 59.1829 84.1909 59.8926 84.2197C65.5128 66.6688 81.5682 54.0001 100.5 54Z"/>
</mask>
<path d="M100.5 54C119.432 54 135.486 66.6689 141.106 84.2197C141.817 84.1908 142.531 84.1758 143.25 84.1758C166.86 84.1758 186 99.9383 186 119.382C186 135.776 172.393 149.553 153.972 153.471C153.112 154.169 152.017 154.588 150.823 154.588H47.6621C46.0504 154.588 44.6175 153.825 43.7031 152.641C26.9936 147.855 15 134.773 15 119.382C15.0002 99.9384 34.1401 84.1759 57.75 84.1758C58.4684 84.1758 59.1829 84.1909 59.8926 84.2197C65.5128 66.6688 81.5682 54.0001 100.5 54Z" fill="url(#paint0_linear_4_690)"/>
<path d="M100.5 54L100.5 53L100.5 53L100.5 54ZM141.106 84.2197L140.154 84.5247L140.386 85.2498L141.147 85.2189L141.106 84.2197ZM143.25 84.1758L143.25 83.1758L143.25 83.1758L143.25 84.1758ZM186 119.382L187 119.382L187 119.382L186 119.382ZM153.972 153.471L153.764 152.493L153.528 152.543L153.341 152.694L153.972 153.471ZM43.7031 152.641L44.4946 152.029L44.294 151.77L43.9785 151.679L43.7031 152.641ZM15 119.382L14 119.382V119.382H15ZM57.75 84.1758L57.75 83.1758L57.75 83.1758L57.75 84.1758ZM59.8926 84.2197L59.852 85.2189L60.6127 85.2498L60.8449 84.5247L59.8926 84.2197ZM100.5 54V55C118.968 55 134.657 67.3602 140.154 84.5247L141.106 84.2197L142.059 83.9148C136.315 65.9777 119.895 53 100.5 53V54ZM141.106 84.2197L141.147 85.2189C141.844 85.1906 142.545 85.1758 143.25 85.1758L143.25 84.1758L143.25 83.1758C142.517 83.1758 141.789 83.1911 141.066 83.2206L141.106 84.2197ZM143.25 84.1758V85.1758C166.498 85.1758 185 100.663 185 119.382L186 119.382L187 119.382C187 99.2131 167.222 83.1758 143.25 83.1758V84.1758ZM186 119.382H185C185 135.172 171.865 148.643 153.764 152.493L153.972 153.471L154.18 154.449C172.92 150.463 187 136.38 187 119.382H186ZM153.972 153.471L153.341 152.694C152.653 153.253 151.778 153.588 150.823 153.588V154.588V155.588C152.255 155.588 153.571 155.084 154.602 154.247L153.972 153.471ZM150.823 154.588V153.588H47.6621V154.588V155.588H150.823V154.588ZM47.6621 154.588V153.588C46.3737 153.588 45.228 152.979 44.4946 152.029L43.7031 152.641L42.9117 153.252C44.0069 154.67 45.727 155.588 47.6621 155.588V154.588ZM43.7031 152.641L43.9785 151.679C27.5722 146.98 16 134.208 16 119.382H15H14C14 135.338 26.4151 148.729 43.4278 153.602L43.7031 152.641ZM15 119.382L16 119.382C16.0001 100.664 34.502 85.1759 57.75 85.1758L57.75 84.1758L57.75 83.1758C33.7782 83.1759 14.0002 99.2132 14 119.382L15 119.382ZM57.75 84.1758V85.1758C58.4544 85.1758 59.1553 85.1906 59.852 85.2189L59.8926 84.2197L59.9332 83.2206C59.2104 83.1912 58.4824 83.1758 57.75 83.1758V84.1758ZM59.8926 84.2197L60.8449 84.5247C66.3414 67.3601 82.0314 55.0001 100.5 55L100.5 54L100.5 53C81.1049 53.0001 64.6841 65.9775 58.9402 83.9148L59.8926 84.2197Z" fill="black" fill-opacity="0.34" mask="url(#path-1-inside-1_4_690)"/>
<mask id="path-3-inside-2_4_690" fill="white">
<path d="M57.499 40C66.9097 40 74.89 46.2982 77.6836 55.0225C78.0365 55.0081 78.3917 55 78.749 55C90.4849 55 99.9989 62.8351 99.999 72.5C99.999 81.5463 91.6642 88.9885 80.9736 89.9043C80.6584 89.9666 80.3325 90 79.999 90H33.75C33.0735 90 32.4284 89.8646 31.8398 89.6211C22.2202 87.9491 15 80.9197 15 72.5C15.0001 62.8351 24.5141 55 36.25 55C36.607 55 36.9618 55.0081 37.3145 55.0225C40.1079 46.2982 48.0884 40.0002 57.499 40Z"/>
</mask>
<path d="M57.499 40C66.9097 40 74.89 46.2982 77.6836 55.0225C78.0365 55.0081 78.3917 55 78.749 55C90.4849 55 99.9989 62.8351 99.999 72.5C99.999 81.5463 91.6642 88.9885 80.9736 89.9043C80.6584 89.9666 80.3325 90 79.999 90H33.75C33.0735 90 32.4284 89.8646 31.8398 89.6211C22.2202 87.9491 15 80.9197 15 72.5C15.0001 62.8351 24.5141 55 36.25 55C36.607 55 36.9618 55.0081 37.3145 55.0225C40.1079 46.2982 48.0884 40.0002 57.499 40Z" fill="url(#paint1_linear_4_690)"/>
<path d="M57.499 40L57.499 39L57.499 39L57.499 40ZM77.6836 55.0225L76.7312 55.3274L76.9634 56.0526L77.7242 56.0216L77.6836 55.0225ZM78.749 55L78.749 54L78.749 54L78.749 55ZM99.999 72.5L100.999 72.5L100.999 72.5L99.999 72.5ZM80.9736 89.9043L80.8883 88.9079L80.8336 88.9126L80.7798 88.9233L80.9736 89.9043ZM31.8398 89.6211L32.2221 88.6971L32.12 88.6548L32.0111 88.6359L31.8398 89.6211ZM15 72.5L14 72.5V72.5H15ZM36.25 55L36.25 54H36.25V55ZM37.3145 55.0225L37.2738 56.0216L38.0346 56.0526L38.2668 55.3274L37.3145 55.0225ZM57.499 40V41C66.4463 41 74.0614 46.9894 76.7312 55.3274L77.6836 55.0225L78.636 54.7175C75.7187 45.607 67.373 39 57.499 39V40ZM77.6836 55.0225L77.7242 56.0216C78.0653 56.0078 78.4068 56 78.749 56L78.749 55L78.749 54C78.3767 54 78.0078 54.0084 77.643 54.0233L77.6836 55.0225ZM78.749 55V56C90.1231 56 98.9989 63.5603 98.999 72.5L99.999 72.5L100.999 72.5C100.999 62.11 90.8468 54 78.749 54V55ZM99.999 72.5H98.999C98.999 80.871 91.2332 88.0218 80.8883 88.9079L80.9736 89.9043L81.059 90.9006C92.0951 89.9552 100.999 82.2215 100.999 72.5H99.999ZM80.9736 89.9043L80.7798 88.9233C80.5265 88.9733 80.2655 89 79.999 89V90V91C80.3995 91 80.7903 90.9598 81.1674 90.8853L80.9736 89.9043ZM79.999 90V89H33.75V90V91H79.999V90ZM33.75 90V89C33.208 89 32.6926 88.8917 32.2221 88.6971L31.8398 89.6211L31.4575 90.5451C32.1642 90.8375 32.9389 91 33.75 91V90ZM31.8398 89.6211L32.0111 88.6359C22.719 87.0208 16 80.2943 16 72.5H15H14C14 81.545 21.7215 88.8774 31.6686 90.6063L31.8398 89.6211ZM15 72.5L16 72.5C16.0001 63.5603 24.876 56 36.25 56V55V54C24.1522 54 14.0001 62.11 14 72.5L15 72.5ZM36.25 55L36.25 56C36.5918 56 36.9331 56.0078 37.2738 56.0216L37.3145 55.0225L37.3551 54.0233C36.9906 54.0085 36.6221 54 36.25 54L36.25 55ZM37.3145 55.0225L38.2668 55.3274C40.9366 46.9894 48.5518 41.0002 57.499 41L57.499 40L57.499 39C47.6251 39.0002 39.2792 45.6069 36.3621 54.7175L37.3145 55.0225Z" fill="black" fill-opacity="0.34" mask="url(#path-3-inside-2_4_690)"/>
<path d="M58.2053 128.02C58.21 128.005 58.2153 127.991 58.22 127.977C64.5775 133.764 67.9827 137.306 72.4414 142.901C73.7651 144.265 74.7719 145.977 75.2994 147.945C76.9448 154.087 73.3196 160.394 67.2028 162.033C61.0861 163.671 54.7938 160.022 53.1482 153.881C52.5755 151.743 52.6418 149.586 53.2287 147.612C54.4965 140.33 55.7555 135.659 58.166 128.145L58.1638 127.944L58.2053 128.02Z" fill="url(#paint2_linear_4_690)"/>
<path d="M95.1374 128.02C95.142 128.005 95.1474 127.991 95.152 127.977C101.51 133.764 104.915 137.306 109.373 142.901C110.697 144.265 111.704 145.977 112.231 147.945C113.877 154.087 110.252 160.394 104.135 162.033C98.0181 163.671 91.7258 160.022 90.0802 153.881C89.5075 151.743 89.5738 149.586 90.1607 147.612C91.4285 140.33 92.6875 135.659 95.098 128.145L95.0958 127.944L95.1374 128.02Z" fill="url(#paint3_linear_4_690)"/>
<path d="M132.069 128.02C132.074 128.005 132.079 127.991 132.084 127.977C138.441 133.764 141.847 137.306 146.305 142.901C147.629 144.265 148.636 145.977 149.163 147.945C150.809 154.087 147.184 160.394 141.067 162.033C134.95 163.671 128.658 160.022 127.012 153.881C126.439 151.743 126.506 149.586 127.093 147.612C128.361 140.33 129.619 135.659 132.03 128.145L132.028 127.944L132.069 128.02Z" fill="url(#paint4_linear_4_690)"/>
<defs>
<linearGradient id="paint0_linear_4_690" x1="217.434" y1="71.6029" x2="46.4343" y2="154.589" gradientUnits="userSpaceOnUse">
<stop offset="0.00961538" stop-color="#556973"/>
<stop offset="0.576923" stop-color="#7281A9"/>
<stop offset="1" stop-color="#878DBA"/>
</linearGradient>
<linearGradient id="paint1_linear_4_690" x1="115.624" y1="48.75" x2="30.6246" y2="89.9995" gradientUnits="userSpaceOnUse">
<stop offset="0.00961538" stop-color="#556973"/>
<stop offset="0.576923" stop-color="#7281A9"/>
<stop offset="1" stop-color="#878DBA"/>
</linearGradient>
<linearGradient id="paint2_linear_4_690" x1="82.6514" y1="142.156" x2="54.0483" y2="157.24" gradientUnits="userSpaceOnUse">
<stop stop-color="#9DC1F5"/>
<stop offset="1" stop-color="#5384BC"/>
</linearGradient>
<linearGradient id="paint3_linear_4_690" x1="119.583" y1="142.156" x2="90.9803" y2="157.24" gradientUnits="userSpaceOnUse">
<stop stop-color="#9DC1F5"/>
<stop offset="1" stop-color="#5384BC"/>
</linearGradient>
<linearGradient id="paint4_linear_4_690" x1="156.515" y1="142.156" x2="127.912" y2="157.24" gradientUnits="userSpaceOnUse">
<stop stop-color="#9DC1F5"/>
<stop offset="1" stop-color="#5384BC"/>
</linearGradient>
</defs>
</svg>
