<svg width="200" height="200" viewBox="0 0 200 200" fill="none" xmlns="http://www.w3.org/2000/svg">
<circle cx="99.5" cy="99.5" r="77.5" fill="url(#paint0_linear_3_415)"/>
<mask id="path-2-inside-1_3_415" fill="white">
<path d="M73.4492 100C87.9412 100 100.231 109.698 104.533 123.133C105.077 123.111 105.624 123.1 106.175 123.1C124.248 123.1 138.899 135.166 138.899 150.05C138.899 162.939 127.911 173.712 113.229 176.369C112.509 176.77 111.682 177 110.8 177H34.1748C32.911 177 31.7573 176.53 30.877 175.757C17.6158 172.315 8 162.108 8 150.05C8.00013 135.166 22.6512 123.1 40.7246 123.1C41.2744 123.1 41.8211 123.111 42.3643 123.133C46.6666 109.698 58.9572 100 73.4492 100Z"/>
</mask>
<path d="M73.4492 100C87.9412 100 100.231 109.698 104.533 123.133C105.077 123.111 105.624 123.1 106.175 123.1C124.248 123.1 138.899 135.166 138.899 150.05C138.899 162.939 127.911 173.712 113.229 176.369C112.509 176.77 111.682 177 110.8 177H34.1748C32.911 177 31.7573 176.53 30.877 175.757C17.6158 172.315 8 162.108 8 150.05C8.00013 135.166 22.6512 123.1 40.7246 123.1C41.2744 123.1 41.8211 123.111 42.3643 123.133C46.6666 109.698 58.9572 100 73.4492 100Z" fill="url(#paint1_radial_3_415)"/>
<path d="M73.4492 100L73.4492 99L73.4492 99L73.4492 100ZM104.533 123.133L103.581 123.438L103.813 124.163L104.574 124.132L104.533 123.133ZM106.175 123.1L106.175 122.1H106.175V123.1ZM138.899 150.05L139.899 150.05L139.899 150.05L138.899 150.05ZM113.229 176.369L113.05 175.385L112.887 175.415L112.742 175.496L113.229 176.369ZM110.8 177L110.8 178L110.8 178L110.8 177ZM30.877 175.757L31.5369 175.006L31.3583 174.849L31.1282 174.789L30.877 175.757ZM8 150.05L7 150.05V150.05H8ZM40.7246 123.1L40.7246 122.1H40.7246V123.1ZM42.3643 123.133L42.3237 124.132L43.0844 124.163L43.3166 123.438L42.3643 123.133ZM73.4492 100V101C87.4779 101 99.4021 110.389 103.581 123.438L104.533 123.133L105.486 122.828C101.059 109.007 88.4046 99 73.4492 99V100ZM104.533 123.133L104.574 124.132C105.104 124.11 105.638 124.1 106.175 124.1V123.1V122.1C105.611 122.1 105.05 122.111 104.493 122.134L104.533 123.133ZM106.175 123.1L106.175 124.1C123.886 124.1 137.899 135.891 137.899 150.05L138.899 150.05L139.899 150.05C139.899 134.441 124.61 122.1 106.175 122.1L106.175 123.1ZM138.899 150.05H137.899C137.899 162.318 127.407 172.787 113.05 175.385L113.229 176.369L113.407 177.353C128.415 174.638 139.899 163.561 139.899 150.05H138.899ZM113.229 176.369L112.742 175.496C112.166 175.816 111.505 176 110.8 176L110.8 177L110.8 178C111.858 178 112.852 177.723 113.715 177.243L113.229 176.369ZM110.8 177V176H34.1748V177V178H110.8V177ZM34.1748 177V176C33.1637 176 32.2423 175.625 31.5369 175.006L30.877 175.757L30.217 176.508C31.2723 177.435 32.6583 178 34.1748 178V177ZM30.877 175.757L31.1282 174.789C18.1762 171.427 9 161.529 9 150.05H8H7C7 162.687 17.0554 173.203 30.6257 176.725L30.877 175.757ZM8 150.05L9 150.05C9.00013 135.891 23.0131 124.1 40.7246 124.1V123.1V122.1C22.2892 122.1 7.00014 134.441 7 150.05L8 150.05ZM40.7246 123.1L40.7246 124.1C41.2609 124.1 41.7941 124.11 42.3237 124.132L42.3643 123.133L42.4049 122.134C41.8481 122.111 41.2879 122.1 40.7246 122.1L40.7246 123.1ZM42.3643 123.133L43.3166 123.438C47.4952 110.389 59.4204 101 73.4492 101L73.4492 100L73.4492 99C58.4939 99.0001 45.8379 109.007 41.4119 122.828L42.3643 123.133Z" fill="url(#paint2_linear_3_415)" mask="url(#path-2-inside-1_3_415)"/>
<defs>
<linearGradient id="paint0_linear_3_415" x1="42.745" y1="55.2702" x2="155.081" y2="157.429" gradientUnits="userSpaceOnUse">
<stop stop-color="#DABA1A"/>
<stop offset="1" stop-color="#F29011"/>
</linearGradient>
<radialGradient id="paint1_radial_3_415" cx="0" cy="0" r="1" gradientTransform="matrix(-65.4497 31.7625 -22.4205 -46.2 97.5121 145.238)" gradientUnits="userSpaceOnUse">
<stop stop-color="#64A8F1"/>
<stop offset="0.389423" stop-color="#7BBBE7"/>
<stop offset="1" stop-color="#B7E1FA"/>
</radialGradient>
<linearGradient id="paint2_linear_3_415" x1="73.4497" y1="100" x2="73.4497" y2="177" gradientUnits="userSpaceOnUse">
<stop stop-color="#666666" stop-opacity="0"/>
<stop offset="1" stop-opacity="0.45"/>
</linearGradient>
</defs>
</svg>
