<svg width="200" height="200" viewBox="0 0 200 200" fill="none" xmlns="http://www.w3.org/2000/svg">
<circle cx="99.5" cy="99.5" r="77.5" fill="url(#paint0_linear_3_374)"/>
<path d="M147.5 121C156.91 121 164.891 127.297 167.685 136.021C168.038 136.007 168.393 136 168.75 136C180.486 136 190 143.835 190 153.5C190 162.549 181.66 169.994 170.964 170.905C170.652 170.966 170.33 171 170 171H123.75C123.073 171 122.428 170.865 121.84 170.621C112.221 168.949 105 161.92 105 153.5C105 143.835 114.514 136 126.25 136C126.607 136 126.963 136.007 127.315 136.021C130.109 127.297 138.09 121 147.5 121Z" fill="url(#paint1_radial_3_374)"/>
<defs>
<linearGradient id="paint0_linear_3_374" x1="42.745" y1="55.2702" x2="155.081" y2="157.429" gradientUnits="userSpaceOnUse">
<stop stop-color="#DABA1A"/>
<stop offset="1" stop-color="#F29011"/>
</linearGradient>
<radialGradient id="paint1_radial_3_374" cx="0" cy="0" r="1" gradientUnits="userSpaceOnUse" gradientTransform="translate(163.125 150.375) rotate(154.113) scale(47.2402 33.3461)">
<stop stop-color="#64A8F1"/>
<stop offset="0.389423" stop-color="#7BBBE7"/>
<stop offset="1" stop-color="#B7E1FA"/>
</radialGradient>
</defs>
</svg>
