<svg width="200" height="200" viewBox="0 0 200 200" fill="none" xmlns="http://www.w3.org/2000/svg">
<circle cx="127" cy="73" r="54" fill="url(#paint0_linear_3_634)"/>
<mask id="path-2-inside-1_3_634" fill="white">
<path d="M81.5 71C98.4391 71 112.804 82.3355 117.833 98.0391C118.468 98.0132 119.108 98 119.751 98C140.876 98.0002 158.001 112.103 158.001 129.5C158.001 144.31 145.589 156.73 128.864 160.097C128.053 160.665 127.066 161 126 161H34.75C33.2834 161 31.9643 160.368 31.0498 159.362C15.9075 155.168 5 143.384 5 129.5C5 112.103 22.1253 98.0002 43.25 98C43.8927 98 44.5321 98.0133 45.167 98.0391C50.1955 82.3355 64.561 71.0002 81.5 71Z"/>
</mask>
<path d="M81.5 71C98.4391 71 112.804 82.3355 117.833 98.0391C118.468 98.0132 119.108 98 119.751 98C140.876 98.0002 158.001 112.103 158.001 129.5C158.001 144.31 145.589 156.73 128.864 160.097C128.053 160.665 127.066 161 126 161H34.75C33.2834 161 31.9643 160.368 31.0498 159.362C15.9075 155.168 5 143.384 5 129.5C5 112.103 22.1253 98.0002 43.25 98C43.8927 98 44.5321 98.0133 45.167 98.0391C50.1955 82.3355 64.561 71.0002 81.5 71Z" fill="url(#paint1_linear_3_634)"/>
<path d="M81.5 71L81.5 70L81.5 70L81.5 71ZM117.833 98.0391L116.881 98.344L117.113 99.0692L117.874 99.0382L117.833 98.0391ZM119.751 98L119.751 97H119.751V98ZM158.001 129.5L159.001 129.5L159.001 129.5L158.001 129.5ZM128.864 160.097L128.667 159.116L128.462 159.158L128.291 159.278L128.864 160.097ZM34.75 161L34.7499 162H34.75V161ZM31.0498 159.362L31.7897 158.69L31.5953 158.476L31.3167 158.399L31.0498 159.362ZM5 129.5L4 129.5V129.5H5ZM43.25 98L43.25 97L43.25 97L43.25 98ZM45.167 98.0391L45.1264 99.0382L45.8872 99.0692L46.1194 98.344L45.167 98.0391ZM81.5 71V72C97.9758 72 111.976 83.0268 116.881 98.344L117.833 98.0391L118.785 97.7341C113.633 81.6443 98.9024 70 81.5 70V71ZM117.833 98.0391L117.874 99.0382C118.495 99.013 119.122 99 119.751 99V98V97C119.094 97 118.441 97.0135 117.792 97.0399L117.833 98.0391ZM119.751 98L119.751 99C140.514 99.0002 157.001 112.828 157.001 129.5L158.001 129.5L159.001 129.5C159.001 111.378 141.238 97.0002 119.751 97L119.751 98ZM158.001 129.5H157.001C157.001 143.7 145.07 155.814 128.667 159.116L128.864 160.097L129.062 161.077C146.108 157.645 159.001 144.921 159.001 129.5H158.001ZM128.864 160.097L128.291 159.278C127.641 159.733 126.853 160 126 160V161V162C127.279 162 128.465 161.597 129.438 160.916L128.864 160.097ZM126 161V160H34.75V161V162H126V161ZM34.75 161L34.7501 160C33.5769 160 32.5228 159.496 31.7897 158.69L31.0498 159.362L30.3099 160.035C31.4059 161.241 32.9899 162 34.7499 162L34.75 161ZM31.0498 159.362L31.3167 158.399C16.4798 154.289 6 142.814 6 129.5H5H4C4 143.953 15.3353 156.047 30.7829 160.326L31.0498 159.362ZM5 129.5L6 129.5C6 112.828 22.4872 99.0002 43.25 99L43.25 98L43.25 97C21.7634 97.0002 4 111.378 4 129.5L5 129.5ZM43.25 98V99C43.8789 99 44.5048 99.013 45.1264 99.0382L45.167 98.0391L45.2076 97.0399C44.5594 97.0135 43.9064 97 43.25 97V98ZM45.167 98.0391L46.1194 98.344C51.0242 83.0268 65.0243 72.0002 81.5 72L81.5 71L81.5 70C64.0977 70.0002 49.3668 81.6443 44.2146 97.7341L45.167 98.0391Z" fill="black" fill-opacity="0.34" mask="url(#path-2-inside-1_3_634)"/>
<path d="M48.4954 146.288C48.4988 146.277 48.5026 146.267 48.506 146.256C53.328 150.645 55.9103 153.331 59.2927 157.576C60.2941 158.61 61.0553 159.906 61.4546 161.396C62.702 166.052 59.9545 170.833 55.3173 172.076C50.6798 173.319 45.9089 170.552 44.6613 165.896C44.2276 164.277 44.2771 162.643 44.7207 161.148C45.6823 155.624 46.6366 152.082 48.465 146.382L48.4641 146.232L48.4954 146.288Z" fill="url(#paint2_linear_3_634)"/>
<path d="M76.4954 146.288C76.4988 146.277 76.5026 146.267 76.506 146.256C81.328 150.645 83.9103 153.331 87.2927 157.576C88.2941 158.61 89.0553 159.906 89.4546 161.396C90.702 166.052 87.9545 170.833 83.3173 172.076C78.6798 173.319 73.9089 170.552 72.6613 165.896C72.2276 164.277 72.2771 162.643 72.7207 161.148C73.6823 155.624 74.6366 152.082 76.465 146.382L76.4641 146.232L76.4954 146.288Z" fill="url(#paint3_linear_3_634)"/>
<path d="M104.495 146.288C104.499 146.277 104.503 146.267 104.506 146.256C109.328 150.645 111.91 153.331 115.293 157.576C116.294 158.61 117.055 159.906 117.455 161.396C118.702 166.052 115.955 170.833 111.317 172.076C106.68 173.319 101.909 170.552 100.661 165.896C100.228 164.277 100.277 162.643 100.721 161.148C101.682 155.624 102.637 152.082 104.465 146.382L104.464 146.232L104.495 146.288Z" fill="url(#paint4_linear_3_634)"/>
<defs>
<linearGradient id="paint0_linear_3_634" x1="87.4545" y1="42.1818" x2="165.727" y2="113.364" gradientUnits="userSpaceOnUse">
<stop stop-color="#DABA1A"/>
<stop offset="1" stop-color="#F29011"/>
</linearGradient>
<linearGradient id="paint1_linear_3_634" x1="186.126" y1="86.75" x2="33.1258" y2="161.001" gradientUnits="userSpaceOnUse">
<stop offset="0.00961538" stop-color="#556973"/>
<stop offset="0.576923" stop-color="#7281A9"/>
<stop offset="1" stop-color="#878DBA"/>
</linearGradient>
<linearGradient id="paint2_linear_3_634" x1="67.0282" y1="157.007" x2="45.3435" y2="168.442" gradientUnits="userSpaceOnUse">
<stop stop-color="#9DC1F5"/>
<stop offset="1" stop-color="#5384BC"/>
</linearGradient>
<linearGradient id="paint3_linear_3_634" x1="95.0282" y1="157.007" x2="73.3435" y2="168.442" gradientUnits="userSpaceOnUse">
<stop stop-color="#9DC1F5"/>
<stop offset="1" stop-color="#5384BC"/>
</linearGradient>
<linearGradient id="paint4_linear_3_634" x1="123.028" y1="157.007" x2="101.343" y2="168.442" gradientUnits="userSpaceOnUse">
<stop stop-color="#9DC1F5"/>
<stop offset="1" stop-color="#5384BC"/>
</linearGradient>
</defs>
</svg>
