<svg width="200" height="200" viewBox="0 0 200 200" fill="none" xmlns="http://www.w3.org/2000/svg">
<circle cx="99.5" cy="99.5" r="77.5" fill="url(#paint0_linear_3_395)"/>
<path d="M46.1006 37C54.7583 37.0001 62.0998 42.794 64.6699 50.8203C64.9947 50.8071 65.3216 50.7998 65.6504 50.7998C76.4475 50.7998 85.2002 58.0086 85.2002 66.9004C85.2 75.4116 77.1802 82.3782 67.0244 82.959C66.8199 82.9845 66.6118 83 66.4004 83H24.6504C24.102 83 23.5747 82.9102 23.0811 82.7471C13.939 81.3987 7.00021 74.817 7 66.9004C7 58.0086 15.7536 50.7998 26.5508 50.7998C26.8789 50.7998 27.2051 50.8071 27.5293 50.8203C30.0993 42.7938 37.4426 37 46.1006 37Z" fill="url(#paint1_radial_3_395)"/>
<path d="M154.101 131C162.758 131 170.1 136.794 172.67 144.82C172.995 144.807 173.322 144.8 173.65 144.8C184.448 144.8 193.2 152.009 193.2 160.9C193.2 169.412 185.18 176.378 175.024 176.959C174.82 176.984 174.612 177 174.4 177H132.65C132.102 177 131.575 176.91 131.081 176.747C121.939 175.399 115 168.817 115 160.9C115 152.009 123.754 144.8 134.551 144.8C134.879 144.8 135.205 144.807 135.529 144.82C138.099 136.794 145.443 131 154.101 131Z" fill="url(#paint2_radial_3_395)"/>
<defs>
<linearGradient id="paint0_linear_3_395" x1="42.745" y1="55.2702" x2="155.081" y2="157.429" gradientUnits="userSpaceOnUse">
<stop stop-color="#DABA1A"/>
<stop offset="1" stop-color="#F29011"/>
</linearGradient>
<radialGradient id="paint1_radial_3_395" cx="0" cy="0" r="1" gradientTransform="matrix(-39.1001 18.975 -13.3942 -27.6 60.4751 64.025)" gradientUnits="userSpaceOnUse">
<stop stop-color="#64A8F1"/>
<stop offset="0.389423" stop-color="#7BBBE7"/>
<stop offset="1" stop-color="#B7E1FA"/>
</radialGradient>
<radialGradient id="paint2_radial_3_395" cx="0" cy="0" r="1" gradientTransform="matrix(-39.1001 18.975 -13.3942 -27.6 168.475 158.025)" gradientUnits="userSpaceOnUse">
<stop stop-color="#64A8F1"/>
<stop offset="0.389423" stop-color="#7BBBE7"/>
<stop offset="1" stop-color="#B7E1FA"/>
</radialGradient>
</defs>
</svg>
