<svg width="200" height="200" viewBox="0 0 200 200" fill="none" xmlns="http://www.w3.org/2000/svg">
<path d="M99.5 22C103.396 22 107.225 22.2878 110.967 22.8428C79.8 27.8811 56 54.911 56 87.5C56 123.675 85.3253 153 121.5 153C140.829 153 158.202 144.626 170.191 131.31C158.051 158.248 130.966 177 99.5 177C56.6979 177 22 142.302 22 99.5C22 56.6979 56.6979 22 99.5 22Z" fill="url(#paint0_linear_4_748)"/>
<mask id="path-2-inside-1_4_748" fill="white">
<path d="M131.199 58C137.222 58 142.329 62.0303 144.117 67.6133C144.343 67.6041 144.571 67.6006 144.8 67.6006C152.311 67.6007 158.399 72.6145 158.399 78.7998C158.399 84.9853 152.311 89.9999 144.8 90C144.582 90 144.364 89.9947 144.148 89.9863C144.033 89.9943 143.917 90 143.8 90H117.8C117.77 90 117.74 89.9976 117.711 89.9971C117.674 89.9973 117.637 90 117.6 90C110.089 89.9999 104 84.9853 104 78.7998C104 72.6144 110.089 67.6007 117.6 67.6006C117.828 67.6006 118.055 67.6041 118.281 67.6133C120.069 62.0303 125.177 58.0002 131.199 58Z"/>
</mask>
<path d="M131.199 58C137.222 58 142.329 62.0303 144.117 67.6133C144.343 67.6041 144.571 67.6006 144.8 67.6006C152.311 67.6007 158.399 72.6145 158.399 78.7998C158.399 84.9853 152.311 89.9999 144.8 90C144.582 90 144.364 89.9947 144.148 89.9863C144.033 89.9943 143.917 90 143.8 90H117.8C117.77 90 117.74 89.9976 117.711 89.9971C117.674 89.9973 117.637 90 117.6 90C110.089 89.9999 104 84.9853 104 78.7998C104 72.6144 110.089 67.6007 117.6 67.6006C117.828 67.6006 118.055 67.6041 118.281 67.6133C120.069 62.0303 125.177 58.0002 131.199 58Z" fill="url(#paint1_linear_4_748)"/>
<path d="M131.199 58L131.199 57L131.199 57L131.199 58ZM144.117 67.6133L143.165 67.9183L143.397 68.6434L144.158 68.6125L144.117 67.6133ZM144.8 67.6006L144.8 66.6006H144.8V67.6006ZM158.399 78.7998L159.399 78.7998L159.399 78.7998L158.399 78.7998ZM144.8 90L144.8 91L144.8 91L144.8 90ZM144.148 89.9863L144.187 88.9871L144.133 88.985L144.08 88.9887L144.148 89.9863ZM143.8 90L143.8 91L143.8 91L143.8 90ZM117.711 89.9971L117.728 88.9972L117.716 88.997L117.704 88.9971L117.711 89.9971ZM117.6 90L117.6 91H117.6V90ZM104 78.7998L103 78.7998V78.7998H104ZM117.6 67.6006L117.6 66.6006L117.6 66.6006L117.6 67.6006ZM118.281 67.6133L118.241 68.6125L119.001 68.6434L119.234 67.9183L118.281 67.6133ZM131.199 58V59C136.758 59 141.5 62.7215 143.165 67.9183L144.117 67.6133L145.07 67.3083C143.158 61.339 137.685 57 131.199 57V58ZM144.117 67.6133L144.158 68.6125C144.367 68.6039 144.581 68.6006 144.8 68.6006V67.6006V66.6006C144.561 66.6006 144.319 66.6042 144.077 66.6141L144.117 67.6133ZM144.8 67.6006L144.8 68.6006C151.949 68.6007 157.399 73.3396 157.399 78.7998L158.399 78.7998L159.399 78.7998C159.399 71.8893 152.672 66.6007 144.8 66.6006L144.8 67.6006ZM158.399 78.7998H157.399C157.399 84.2602 151.949 88.9999 144.8 89L144.8 90L144.8 91C152.673 90.9999 159.399 85.7104 159.399 78.7998H158.399ZM144.8 90V89C144.597 89 144.394 88.9951 144.187 88.9871L144.148 89.9863L144.11 90.9856C144.335 90.9943 144.566 91 144.8 91V90ZM144.148 89.9863L144.08 88.9887C143.977 88.9958 143.885 89 143.8 89L143.8 90L143.8 91C143.949 91 144.09 90.9927 144.217 90.984L144.148 89.9863ZM143.8 90V89H117.8V90V91H143.8V90ZM117.8 90V89C117.81 89 117.815 89.0004 117.8 88.9997C117.796 88.9995 117.784 88.999 117.773 88.9986C117.762 88.9981 117.746 88.9975 117.728 88.9972L117.711 89.9971L117.694 90.9969C117.691 90.9969 117.689 90.9967 117.71 90.9977C117.726 90.9984 117.76 91 117.8 91V90ZM117.711 89.9971L117.704 88.9971C117.667 88.9973 117.632 88.9988 117.618 88.9993C117.597 89.0001 117.597 89 117.6 89V90V91C117.64 91 117.676 90.9986 117.693 90.9979C117.716 90.997 117.718 90.997 117.718 90.997L117.711 89.9971ZM117.6 90L117.6 89C110.451 88.9999 105 84.2602 105 78.7998H104H103C103 85.7104 109.727 90.9999 117.6 91L117.6 90ZM104 78.7998L105 78.7998C105 73.3396 110.451 68.6006 117.6 68.6006L117.6 67.6006L117.6 66.6006C109.727 66.6007 103 71.8892 103 78.7998L104 78.7998ZM117.6 67.6006V68.6006C117.818 68.6006 118.032 68.604 118.241 68.6125L118.281 67.6133L118.322 66.6141C118.079 66.6043 117.838 66.6006 117.6 66.6006V67.6006ZM118.281 67.6133L119.234 67.9183C120.898 62.7216 125.64 59.0002 131.199 59L131.199 58L131.199 57C124.714 57.0002 119.241 61.339 117.329 67.3083L118.281 67.6133Z" fill="black" fill-opacity="0.17" mask="url(#path-2-inside-1_4_748)"/>
<defs>
<linearGradient id="paint0_linear_4_748" x1="42.745" y1="55.2702" x2="155.081" y2="157.429" gradientUnits="userSpaceOnUse">
<stop stop-color="#EAE8EB"/>
<stop offset="1" stop-color="#B9C7D2"/>
</linearGradient>
<linearGradient id="paint1_linear_4_748" x1="168.399" y1="63.6" x2="114" y2="89.9997" gradientUnits="userSpaceOnUse">
<stop offset="0.00961538" stop-color="#556973"/>
<stop offset="0.576923" stop-color="#7281A9"/>
<stop offset="1" stop-color="#878DBA"/>
</linearGradient>
</defs>
</svg>
