<svg width="200" height="200" viewBox="0 0 200 200" fill="none" xmlns="http://www.w3.org/2000/svg">
<circle cx="89" cy="88" r="66" fill="url(#paint0_linear_4_783)"/>
<path d="M134.949 113C143.795 113 151.297 118.92 153.923 127.121C154.255 127.108 154.589 127.101 154.925 127.101C165.956 127.101 174.899 134.465 174.899 143.55C174.899 152.194 166.803 159.279 156.516 159.947C156.282 159.981 156.042 160 155.799 160H112.925C112.341 160 111.781 159.899 111.26 159.715C102.003 158.281 95 151.589 95 143.55C95.0002 134.465 103.943 127.101 114.975 127.101C115.31 127.101 115.644 127.108 115.976 127.121C118.601 118.92 126.103 113 134.949 113Z" fill="url(#paint1_linear_4_783)"/>
<defs>
<linearGradient id="paint0_linear_4_783" x1="40.6667" y1="50.3333" x2="136.333" y2="137.333" gradientUnits="userSpaceOnUse">
<stop stop-color="#F4F3F5"/>
<stop offset="1" stop-color="#BDCAD4"/>
</linearGradient>
<linearGradient id="paint1_linear_4_783" x1="189.587" y1="121.225" x2="109.687" y2="160" gradientUnits="userSpaceOnUse">
<stop offset="0.00961538" stop-color="#556973"/>
<stop offset="0.576923" stop-color="#7281A9"/>
<stop offset="1" stop-color="#878DBA"/>
</linearGradient>
</defs>
</svg>
